<?xml version="1.0" encoding="utf-8"?>
<!-- Generator: Adobe Illustrator 23.0.5, SVG Export Plug-In . SVG Version: 6.00 Build 0)  -->
<svg version="1.1" id="Capa_1" xmlns="http://www.w3.org/2000/svg" xmlns:xlink="http://www.w3.org/1999/xlink" x="0px" y="0px"
	 viewBox="0 0 1918.4 1637.1" style="enable-background:new 0 0 1918.4 1637.1;" xml:space="preserve">
<style type="text/css">
	.st0{fill:none;stroke:#363636;stroke-width:32;stroke-linecap:round;stroke-linejoin:round;stroke-miterlimit:10;}
</style>
<title>logo5_1</title>
<g id="Capa_5">
	<polygon class="st0" points="1247.7,700.5 1043.3,818.5 339.7,1224.7 339.7,1029.5 339.7,793.5 339.7,412.3 669.8,602.9 
		874.2,484.9 339.7,176.3 135.3,58.3 135.3,294.3 135.3,911.5 135.3,1147.5 135.3,1342.7 135.3,1578.7 339.7,1460.7 1247.7,936.5 
		1452.1,818.5 	"/>
	<polygon class="st0" points="670.8,936.5 875.2,818.5 1578.7,412.3 1578.7,607.5 1578.7,843.5 1578.7,1224.7 1248.6,1034.1 
		1044.2,1152.1 1578.7,1460.7 1783.1,1578.7 1783.1,1342.7 1783.1,725.5 1783.1,489.5 1783.1,294.3 1783.1,58.3 1578.7,176.3 
		670.8,700.5 466.4,818.5 	"/>
</g>
</svg>
