<?xml version="1.0" encoding="utf-8"?>
<!-- Generator: Adobe Illustrator 23.0.1, SVG Export Plug-In . SVG Version: 6.00 Build 0)  -->
<svg version="1.1" id="Capa_1" xmlns="http://www.w3.org/2000/svg" xmlns:xlink="http://www.w3.org/1999/xlink" x="0px" y="0px"
	 viewBox="0 0 3504.8 2287.7" style="enable-background:new 0 0 3504.8 2287.7;" xml:space="preserve">
<style type="text/css">
	.st0{fill:#363636;}
</style>
<title>logo5_1</title>
<g>
	<g id="Capa_5">
		<polygon class="st0" points="2040.9,783.9 1836.5,901.9 1132.9,1308.1 1132.9,1112.9 1132.9,876.9 1132.9,495.7 1463,686.3 
			1667.4,568.3 1132.9,259.7 928.5,141.7 928.5,377.7 928.5,994.9 928.5,1230.9 928.5,1426.1 928.5,1662.1 1132.9,1544.1 
			2040.9,1019.9 2245.3,901.9 		"/>
		<polygon class="st0" points="1464,1019.9 1668.4,901.9 2371.9,495.7 2371.9,690.9 2371.9,926.9 2371.9,1308.1 2041.8,1117.5 
			1837.4,1235.5 2371.9,1544.1 2576.3,1662.1 2576.3,1426.1 2576.3,808.9 2576.3,572.9 2576.3,377.7 2576.3,141.7 2371.9,259.7 
			1464,783.9 1259.6,901.9 		"/>
	</g>
</g>
<g>
	<path class="st0" d="M1195.7,2219.2v-219.4c0-16.7,1-41.3,2.9-74h-1c-3.2,17.3-6.5,30.1-9.8,38.4l-104.3,254.9h-37.2l-105-252.5
		c-2.7-8.5-6-22.1-9.9-40.8H930c0.5,4.3,1,15.6,1.6,33.9c0.6,18.3,0.8,34,0.8,47.3v212.2h-53.1v-344.5h81.7l87.7,217.7
		c8.3,21,13.5,36.8,15.6,47.6h1.4l18.3-48.1l90.1-217.2h78.3v344.5H1195.7z"/>
	<path class="st0" d="M1559.5,2219.2l-31.5-87h-137.9l-30,87h-62.5l130.5-344.5h63.4l130.9,344.5H1559.5z M1459.5,1926.3h-1.4
		c-1.1,9.6-2.8,17.9-5,24.7l-47.1,132.9h105.7l-47.3-132.9C1462.7,1946.9,1461.1,1938.7,1459.5,1926.3z"/>
	<path class="st0" d="M1915.5,1984.5c0,22.7-5.7,42.9-17.1,60.5c-11.4,17.6-27.6,31.3-48.5,41c-21,9.7-44.9,14.5-71.6,14.5h-37
		v118.7h-77.6v-344.5h121.6C1872.1,1874.7,1915.5,1911.3,1915.5,1984.5z M1833.8,1987.4c0-35.4-20.7-53.1-62-53.1h-30.5v107.4h30.5
		C1813.2,2041.7,1833.8,2023.6,1833.8,1987.4z"/>
	<path class="st0" d="M2263.9,2219.2h-77.8v-140.3h-142.7v140.3h-77.6v-344.5h77.6v137.4h142.7v-137.4h77.8V2219.2z"/>
	<path class="st0" d="M2625.5,2196.2c-33.3,19.4-75.1,29.1-125.4,29.1c-55.4,0-99.1-15.4-131.1-46.1c-32-30.8-47.9-73-47.9-126.6
		c0-35.7,8-67.6,24-95.6c16-28,38.6-49.7,67.9-65c29.2-15.3,62.5-22.9,99.8-22.9c36.2,0,68.4,5,96.6,15.1v72.8
		c-26.8-15.4-59.3-23.1-97.5-23.1c-21.3,0-40.2,4.8-56.8,14.3c-16.6,9.5-29.4,23.1-38.6,40.6c-9.1,17.5-13.7,37.6-13.7,60.2
		c0,35.2,9,62.6,26.9,82.1c17.9,19.5,42.6,29.2,74,29.2c18.6,0,33.3-2.6,44.2-7.9v-67.3h-69v-62h146.6V2196.2z"/>
</g>
<text transform="matrix(1 0 0 1 -2591.7517 1182.8624)"><tspan x="0" y="0" class="st0" style="font-family:'SegoePro-Semibold'; font-size:411.2703px;">MA</tspan><tspan x="659.3" y="0" style="fill:#E2DD30; font-family:'SegoePro-Bold'; font-size:411.2703px;">PHG</tspan></text>
<text transform="matrix(1 0 0 1 -302.5432 3472.071)"><tspan x="0" y="0" class="st0" style="font-family:'SegoePro-Semibold'; font-size:411.2703px;">MA</tspan><tspan x="659.3" y="0" style="fill:#E2DD30; font-family:'SegoePro-Bold'; font-size:411.2703px;">PHG</tspan></text>
<g>
	<path class="st0" d="M2779.6,2222.7h-28.5l-52.8-148.5h27.1l37.2,112.7c1.4,3.7,2.3,8.1,2.9,13.4h0.5c0.3-4.5,1.3-9.1,2.9-13.8
		l37.6-112.2h25.9L2779.6,2222.7z"/>
	<path class="st0" d="M2929.3,2074.2v95.9h22.1v20h-22.1v32.6H2906V2190h-67.2v-20.2c14.3-16.1,27.4-32.6,39.2-49.6
		c11.9-17,20.9-32.4,27-46H2929.3z M2906,2170.1v-62.3c-7.5,13.5-15,25.3-22.3,35.4c-7.4,10.1-14.2,19.1-20.7,26.9H2906z"/>
</g>
</svg>
