<?xml version="1.0" encoding="utf-8"?>
<!-- Generator: Adobe Illustrator 23.0.5, SVG Export Plug-In . SVG Version: 6.00 Build 0)  -->
<svg version="1.1" id="Capa_1" xmlns="http://www.w3.org/2000/svg" xmlns:xlink="http://www.w3.org/1999/xlink" x="0px" y="0px"
	 viewBox="0 0 1725.5 1520.4" style="enable-background:new 0 0 1725.5 1520.4;" xml:space="preserve">
<style type="text/css">
	.st0{fill:#FFE000;}
	.st1{fill:#F2F2F2;}
</style>
<title>logo5_1</title>
<g>
	<path d="M1815.5-1453.6c0-128.2,2.1-260.2,4.1-334.9h-2c-25.4,123.2-84.2,403.6-138.1,625.7h-81.1
		c-40.4-195.7-101.9-496.8-126.9-627.2h-3c4.1,81.4,7.2,234,7.2,354v273.2h-80.3V-1862h128.2c52.7,214.6,103.1,467.5,119.3,560.9h1
		c13.3-79.2,76.7-354.6,128.9-560.9h126.4v699.2h-83.7V-1453.6z"/>
	<path d="M2109.4-1375.9l-47.8,213.2h-86l167.5-699.2h111.5l172,699.2h-91l-48.3-213.2L2109.4-1375.9L2109.4-1375.9z M2270.4-1451.8
		c-37.8-164.6-63-271.7-72.7-329.5h-2.5c-9.4,61.5-36.7,183.4-69.4,329.5H2270.4z"/>
</g>
<g>
	<path d="M1395.4-1051.5h186c110.8,0,188.7,69,188.7,197.2c0,126.3-70.2,203.1-199.7,203.1h-89.1v298.8h-86L1395.4-1051.5
		L1395.4-1051.5z M1481.4-722.8h79.8c81.1,0,121.8-42.6,121.8-132.4c0-75.9-39.5-124.2-113.4-124.2h-88.2L1481.4-722.8L1481.4-722.8
		z"/>
	<path d="M1861-1051.5h86v291.7h215.8v-291.7h86v699.2h-86v-331.6H1947v331.6h-86V-1051.5z"/>
	<path d="M2762.7-352.3h-67.1c-2.5-19.9-4.6-40-5.1-72.5c-24.5,49.9-62,83.2-139.7,83.2c-150.4,0-192.6-151.2-192.6-358.8
		c0-243.5,76.2-361.3,219.8-361.3c171.8,0,182.6,151.3,184.7,193.1h-85.6c-2.1-25.5-7.7-118.7-101.5-118.7
		c-95.3,0-127.8,114.6-127.8,285.7c0,172.6,24.8,285.9,119.7,285.9c89,0,110.2-73.5,110.2-211.8v-35.1h-116.2v-74.9h201.2
		C2762.7-737.4,2762.7-352.3,2762.7-352.3z"/>
</g>
<g>
	<g>
		<path class="st0" d="M5003.2,219.4c0-121.2,1.9-257,5-337.3h-4.9C4970,27,4899,263.6,4830.8,485.8H4700
			c-51.8-194.3-125.2-463.8-156.4-605.7h-4.8c6.1,83.3,9,229.5,9,351.3v254.4h-140v-710.2h228.5c55.4,185.6,117.4,418.4,138.8,524.2
			h1.2c17.4-93.3,95.4-342.2,154.7-524.2h220.3v710.2h-148.1V219.4z"/>
		<path class="st0" d="M5453.8,321.7l-55.4,164.1h-151l241.2-710.2h192.9l251.6,710.2h-161.4l-58.4-164.1H5453.8z M5680.2,195.9
			c-50.4-149.9-82.6-245.6-99.7-309.5h-1c-17.5,70-53,181.4-93.4,309.5H5680.2z"/>
		<path class="st0" d="M4408,572.8h293.8c150.9,0,253.4,84.9,253.4,219.9c0,154.3-116.8,225.1-256.9,225.1h-136.5V1283H4408V572.8z
			 M4561.7,895.5h117.2c71.1,0,121.3-27.3,121.3-99.9c0-73.3-53-100.6-118.1-100.6h-120.4V895.5z"/>
		<path class="st0" d="M5080.7,572.8h153.6v277H5520v-277h153.6V1283H5520V975.7h-285.8V1283h-153.6V572.8H5080.7z"/>
		<path class="st0" d="M6460.9,1283h-112.6c-5.9-21.8-9.8-46.2-11.7-70c-39.4,53.1-108.7,81.9-207.4,81.9
			c-206.2,0-321.3-155.8-321.3-358.1c0-213.5,124.2-374.3,348.1-374.3c182.8,0,290.3,103.1,307.5,224.3h-153.6
			c-14.6-47.6-52.1-103.8-156-103.8c-145.8,0-187.4,122-187.4,247.2c0,122.2,47.6,242.6,188.4,242.6c131.3,0,155.5-91.1,155.5-154.7
			v-6.4h-155.7V885.6H6461L6460.9,1283L6460.9,1283z"/>
	</g>
</g>
<g id="Capa_5">
	<polygon class="st1" points="1151.2,642.2 946.8,760.2 243.2,1166.4 243.2,971.2 243.2,735.2 243.2,354 573.3,544.6 777.7,426.6 
		243.2,118 38.8,0 38.8,236 38.8,853.2 38.8,1089.2 38.8,1284.4 38.8,1520.4 243.2,1402.4 1151.2,878.2 1355.6,760.2 	"/>
	<polygon class="st1" points="574.3,878.2 778.7,760.2 1482.2,354 1482.2,549.2 1482.2,785.2 1482.2,1166.4 1152.1,975.8 
		947.7,1093.8 1482.2,1402.4 1686.6,1520.4 1686.6,1284.4 1686.6,667.2 1686.6,431.2 1686.6,236 1686.6,0 1482.2,118 574.3,642.2 
		369.9,760.2 	"/>
</g>
</svg>
